/* XPM */
static char *result[] = {
/* columns rows colors chars-per-pixel */
"64 64 3 1 ",
"  c #93BBFF",
". c #9BC1FF",
"X c #A4CBFF",
/* pixels */
".                         .............X.........XX  ...........",
"  XXXXXXXXXXXXX           ............X.........XXXX .......... ",
"XXX.....XXX...XXXXXXXXXX   ...........X........X...X  .......   ",
"X......XXX.....XXXXX...XXX  .........X..............  .....   XX",
".......XXX.....XXXX.......XX ........X......X... ...X  ..   XXX.",
"......XXXX....XXXXX........XX ......XX....XX......  .     XX....",
".....XXXX.....XXXX....  .....X .....X....XX.......  .    XX.....",
".....XXXX....XXXX.....  .  ...X  ..XX..XXX..........    XX......",
"....XXXXX....XXXX... ....   ..XX   XXXXXXXXX.X...       X.......",
"....XXXX....XXXX.........   ...X                        X.......",
"....XXXX....XXX...........  ...X  XXXXXXXXXXXXXXXXXXXX  ........",
"....XXXX...XXXX................  XX.....XXX..XX.......X ........",
"....XXX....XXX................X X......XXXX.XX........X ........",
"...XXXX....XX...XX............ .......XXXX..X.........XX .......",
"...XXXX...XXX..XXXXX......... ........XXX..XX..........X .......",
"...XXX....XX...XXXXX.................XXX..XX............ .......",
"...XXX...XX.....XXX......... .......XXXX.XX............X .......",
"...XXX...XX................. X.....XXXX..X..............  ......",
"...XX...XX.................  ......XXX..XX..............  ......",
"..XXX...X..................  X....XXX..XX...............   .....",
"..XXX..XX.................   XX..XXXX.XX................    ....",
"..XX...X....                   XXXXX..X................  XX   ..",
"                      XXXXXX     XX..XX...............  XXXXXX  ",
"      XXXXXXXXXXXXXXXX....XXXXXX  ..XX...............  X.....XXX",
"X   XX.........XXX.X...........XXX .X...............  .........X",
"XX  XX.........XX..X..............X................  X........XX",
".X  X.........XXX.XX..............................  ..........XX",
"..X X.........XX..X.................. ...........  ..........XX.",
"...  ........XXX.XX.................... ........  ..........XX..",
"...X X.......XX..X......................  .....  ...........X...",
"....  ......XXX.XX......................X       X..........X....",
"...XX ......XX..X........................XX    X................",
"..XXX  ....XXX.XX........................XXX  XX.........X......",
".XX...  ...XX..X..........................XX  X.................",
"X.....  ..XXX.XX..........................XX XX.................",
".......  .XX..X...........................X  X..................",
"........ XXX.XX..........................XX  X..................",
"........  X..X...........................X  X.....  ............",
"......... X.XX...........................X  X....    ...........",
".........  .X...........................X   X....    ...........",
"..........  X....................X......X    .....  ............",
"..........   ......................XX...  XX  ........  ........",
"...........    ....................XX..X XXXX  .......  . ......",
"...........      ...................... XX..XX  ................",
"..........   XXXX ..................... X....XX ..... ..........",
".........  XXXXXXXX ............XXX... X......X  ...............",
".......   XXX.....XX .........XXXXX... ........X ...............",
"......   XX........XXX .......XXXXX.. ..........  ..............",
".....   X............XX  ......XXX... ........... ..............",
"....   X..............XX  .......... ............    ...........",
"..   ..................XX   .......  ............        .......",
".  .XX..............X...XX    ....   ...........     XXXX    ...",
" ...XX................XX.XX            ........   XXXX..XXXX    ",
".....XX....X..........XX..X  XXXXXXXXX          XXX........XXX  ",
".....XX...................X XXXX...X..XXX..XXX  X............XX ",
".....XXX....X.............X X.......XX...  ..XX X..............X",
"  ....XXX...X............. X........XX........X  .. ............",
"  ....XXX....X............ ....................X ...............",
".......XXX...X........... ......................  .  ...........",
".......XXX...XX.......... ......................X .  ...........",
".. ....XXXX...X......... .......................X  .............",
".. .....XXX...XX........ ...............X........X .............",
"..  ....XXXX..XX.......  ........................X  ............",
"..               ......  ..............X..........X ............"
};
