/* XPM */
static char *_643301699712[] = {
/* columns rows colors chars-per-pixel */
"64 64 47 1 ",
"  c black",
". c #070707",
"X c #0B0B0B",
"o c #0C0C0C",
"O c gray7",
"+ c gray9",
"@ c #1B1B1B",
"# c #1E1E1E",
"$ c gray13",
"% c #252525",
"& c #2A2A2A",
"* c #2D2D2D",
"= c #323232",
"- c #353535",
"; c #393939",
": c #3F3F3F",
"> c gray25",
", c #444444",
"< c gray29",
"1 c #4E4E4E",
"2 c #535353",
"3 c #565656",
"4 c #5A5A5A",
"5 c gray36",
"6 c #606060",
"7 c #656565",
"8 c #686868",
"9 c gray43",
"0 c #727272",
"q c #777777",
"w c #7B7B7B",
"e c #7C7C7C",
"r c #818181",
"t c #848484",
"y c gray54",
"u c #8E8E8E",
"i c #929292",
"p c #979797",
"a c #989898",
"s c #9D9D9D",
"d c gray63",
"f c gray65",
"g c gray67",
"h c #ACACAC",
"j c gray70",
"k c #B6B6B6",
"l c gray73",
/* pixels */
">99999901&--==-%>99099901&-==-=*60999905*====-$399999905==-===-@",
"9lpetrrr8343436>0kaerrrr83443521ggrrrrrq344445;ulyerrrrq3434445=",
"9a<,,,,,2333325:0p1,,,,,13332412p9;,,,>1332324;ty:,,,,><3333334-",
"9e,644443333335&0w<54545433334<3t2354444333334:r815554443333333*",
"9r,533333333334@0e133333333334>1y4233333333333$r9<4323333333341@",
">62333333333324;>53333332333241*43233333333333&2523333333333231+",
"-43333333555553;-4333333455445,*14333333455552=>43333334445554,%",
"$42333332>>;:;% %4333332,>:::*  14333333,>::-+ :4333333<>>;::*o ",
"<-;;;;:;*:,22223,;;;:;:*-,122232;;:;;;:*;,12232>;;;;;:-=><322221",
"q<22212,<dfttytyq<21112=yhuttytr4<21113&yhityty8<22113;7hstttyty",
"343343522ft133333443435:is3333333434436-is333333433435>0g0133333",
"2333323<4r1222222333333>r7,322223323335;t6<32222333335:0w>322222",
"3333324:3y3243343333333*t91433333333333$y7233333333334&0e1333333",
"3333335:1t3233333333333$t8<433333333334@t7233333333235&8e1333333",
"3333334>*53323323333332%242333333333332$24333333333334-:53233333",
"3433341-&2444444343332:&>5444443333332:%,544443343333,*-45444443",
"$ O$##@oO:>>>>>>% O$$@+ -,>>>>>- .#$$@@ ->>>>>:+ @$##@ $>>>>>>,-",
"4auyyyyyr1><<,1=5aityyyy7;<,,<::ypytyyty6:<,,<&qaytyyyuq><<,,,<&",
"0kr577676434435>qjr5767654344421gs576767543445;ih96767764343434-",
"9t:221222333325>0t>3222223333413u4<22222333334>tq:3212223333324-",
"9e<533333333335=0w143334333334,3r3343433333334=r824334333333333%",
"0t>433333333335+0r<33333333334:1u3233333333333#t9<3333333333331+",
"281333333333334=27233333333334<;83233333333333&6623333333333241@",
"*44334343444431*=4434343344442;%2434343344444,&>44343434444342:#",
"#2112111>&$&&&O +1111112>&$&&#  >211111<=$%*$X *2111112;$%&&*@. ",
"6-:;;;:-=8q000q0q1-;;;;;=8q00q0q6-:;;;>$40000000>-:;;:*,9q000000",
"033333422hfweeewe63334321hfweeee0343335-pktweeew434335>9kaqeeeee",
"133333413p8><<<<<33333323a7:<<<,1333334;ur><<<<<333335>9p2,<<<<<",
"3333334,4r233434433333313t1343443333334-t6243434333334;0w<444343",
"3333324:3y3233333333334,1u2333333333334+y8233333333335%0e1333333",
"3333334,,w3233333333234,>e3333333233233#w6233333333234*6q1333333",
"3545454>*24333334445454>&13333334455442&>3333333455453;-33333333",
"<>::;:=  <433333<>::;:* #3333341>>:;:-@ <4333332>>:::% &33333332",
"*,<3322331--;-;==><32233;=;--;-*><22224,*;--;;;&:,22233<-;;-;-;%",
"7jstyyytuq12224;9hstyyyy8<22231,dgyyytuw1222221,dgyyytyw1222223*",
"9f6<11111233335:0f7,211124433411dt,111<23333342<dr,111123433334-",
"9e>534433333325:qw,53343333334<4t224434333333323y13433433333333=",
"0r,533333333335%0e143333333334>2y3233333333334,<u32333333333332#",
"9e<433333333335$9e<33333333334><t4233333333334,,t32333333333331+",
":52333333333334->5333333343334<*43333333433334<&44333333343334<@",
"*4444444332221:$*444444433222,&$2444444422212,*#2544443322222,=O",
"*,>>>>>>=+#****&=,>>>>>>=+#*=**%:>>>,>>;#+&==**%:>>,>>>&+$=**&*#",
"q:,,,,<:>uaytytty5><,,<>:uattyyt2>,,,,<%eaytytyr1>,,,1-4pitytyty",
"644454522ha68787754444432ha677764445445-ph977777444446>0jt587777",
"1322324<4y2,1111<23233313u1,1<113323324;y8>2<1<1332334:0t><11111",
"4333334>3t3343434333334<2t2444433333324&t7343444333335=9e1444443",
"3333335:2y3233333333334><u2333333333333+y8233333333334%9r1333333",
"3333335;1r2233332333334><t2233333233333@t7133332323335%8w1233233",
"4555453:-44444444554453:-5444444454444<&35444444454542=>54444443",
"=O+@+@   >1<<<<<=O+@@#   >1<<1<<-O+@@X  *1<<<<<<-O+@+   11<<<<1>",
",wqwqwweq>;:::>=<wwwqqwwq,;>:;>*<wwqwwww4-:;::>=<wwqwqe8;:::;::#",
"9li0wqqqq434335:0ki0wqqq0434345:0ki0qqqw6343335,9ki0wqw83333334-",
"9i<111111333335:0i1111111333335:qi1<11113333334>0i1111123333334=",
"9w,533333333325%0q<334333333334&9q1333333333333=9w,433333333332#",
"0r,433333333325#qr<433333333335$qr1333333333334*0t<433333333331+",
"5q<333233333334$60<323333333333$691323333333333*50<33333333333<+",
"=5444445333233>*-4444454333333,%-4444444333333>&-444444333323<-#",
"$>:>>>>>=.O$%$$+%>>>>>>>=Xo%%$$+%>>>>:>;+.#%%$#@%>>>:::& +%%%#$X",
"w:<,,<<>>iayyyyuq><,<,<>:uayyyyuq><,<,1%wauyyyyiw:<,,1-5aptuyyyy",
"534344522gp56666534444421ha566665444445-pg856666534445>9jr466666",
"2333324>2y2<32212323334,1u2<32222233333#y9>32222332334&9t,223222",
"3333335;2y3343333333334>1u2334333333333+y7343333333335$0e1343333",
"4433433&<w3333334444442*,e223333344433,+w6233333443341O6q2333333",
">>,>,>;*%1333333,>>>>>;*&13333331>>,>:=$>3333333>,>>>-&=3333333<"
};
