/* XPM */
static char *_643301834100[] = {
/* columns rows colors chars-per-pixel */
"64 64 212 2 ",
"   c #7D3000000000",
".  c #85C6000D0000",
"X  c #8CBE00340000",
"o  c #8C8C0B3A00C5",
"O  c #947200350001",
"+  c #9BE000350000",
"@  c #95760B3F0000",
"#  c #9B1A0B390076",
"$  c #937E0B9D0994",
"%  c #9B290C2E0EFA",
"&  c #8B8912B8014F",
"*  c #8F3718B70031",
"=  c #9485140C0072",
"-  c #9C1713870090",
";  c #948C1C320062",
":  c #9BDA1BF200B0",
">  c #92E013EB0D85",
",  c #9C6A144D0D17",
"<  c #9B691A120894",
"1  c #96F70ED1108B",
"2  c #8B5519C714F7",
"3  c #8F5818231724",
"4  c #9270157D14DA",
"5  c #9A2D1565125F",
"6  c #99B917BA16EF",
"7  c #9B9D1C4214C2",
"8  c #94441C841C4E",
"9  c #A3AF003E0016",
"0  c #A9D200840000",
"q  c #A4E30B810000",
"w  c #A94B0C1E0000",
"e  c #A69C0BE80D10",
"r  c #A3D413930000",
"t  c #A99315A90348",
"y  c #A3C61B370000",
"u  c #ACDA181F071F",
"i  c #A672137608A4",
"p  c #A3C31C850CF7",
"a  c #A5431AF4167C",
"s  c #A7BC1A031A45",
"d  c #8D452B4C0BD1",
"f  c #92DC23BB0000",
"g  c #992D231200A8",
"h  c #9A0828DB0431",
"j  c #95D122660B7E",
"k  c #9B1E29CA0BAE",
"l  c #96D7212212C0",
"z  c #9C5B20F01341",
"x  c #94F32B2312E4",
"c  c #9A7B2B561153",
"v  c #935A22E61C91",
"b  c #9CC923EA1C57",
"n  c #94B12BAA1D06",
"m  c #9B472DC51CCF",
"M  c #93B2309F10DC",
"N  c #93F531721C14",
"B  c #9BB2328B1D28",
"V  c #A41B22AC01D2",
"C  c #A8C01FFC0000",
"Z  c #A13727BB0778",
"A  c #A74025D30A9F",
"S  c #A50B22631331",
"D  c #A26E2C8A1333",
"F  c #A44E25C81C1D",
"G  c #AC2023061BA1",
"H  c #A3AC2C141BA2",
"J  c #A237326C1D97",
"K  c #AB7630951B45",
"L  c #8C1D293823A0",
"P  c #936025962408",
"I  c #9C60253C23DA",
"U  c #918C2C0A2358",
"Y  c #9CE12C882353",
"T  c #9FB125D52856",
"R  c #94E82CCE2C1C",
"E  c #9DDF2C942B4F",
"W  c #8F4638322746",
"Q  c #93643278253A",
"!  c #9C5C35602294",
"~  c #9AFE39C52621",
"^  c #9542347F2D4B",
"/  c #9CCB33312B89",
"(  c #94CD3D392E2B",
")  c #9C3D3B202DA1",
"_  c #9F9D2F463097",
"`  c #8D5534E030EA",
"'  c #95AB33DF30B3",
"]  c #9C9234D73332",
"[  c #95EA3D193447",
"{  c #9DFC3B8C34B1",
"}  c #93793CF339CF",
"|  c #9E9F3D103AEB",
" . c #A48522972291",
".. c #AA87250922DD",
"X. c #A47C2C81238D",
"o. c #A3522D612BB3",
"O. c #ADD32A8C27BA",
"+. c #A32133B42509",
"@. c #A4A3335A2C35",
"#. c #A54C393F2C20",
"$. c #AC5637F827F1",
"%. c #AC5B3B452CEE",
"&. c #A3EB34423268",
"*. c #A971356A31A8",
"=. c #A2FB3B69340E",
"-. c #AA183A6C3562",
";. c #A3833DBC3B59",
":. c #ACFE3CC439AC",
">. c #916940C432CB",
",. c #9DC2427734AE",
"<. c #9293442A3B8F",
"1. c #9CEC44393C59",
"2. c #9FD44A7A3D02",
"3. c #A2E842B533F1",
"4. c #AA0D428532B9",
"5. c #A43B43343C7B",
"6. c #AB8C44A93C6E",
"7. c #A22E49453DF7",
"8. c #AB224A4B3D4D",
"9. c #A7343F9A4083",
"0. c #97D1473244D1",
"q. c #9E0045804221",
"w. c #95B04B36453E",
"e. c #9EF14A7543F5",
"r. c #9CB54D484B43",
"t. c #998B553649FA",
"y. c #9CE553D04CE0",
"u. c #97B854D9526C",
"i. c #9C1355BB50A8",
"p. c #9D4E5A975314",
"a. c #9E825BD55995",
"s. c #A3BC44A34291",
"d. c #AC46450D430D",
"f. c #A3794B4044C7",
"g. c #AC334BCB4403",
"h. c #A4694CDC4AB9",
"j. c #AC274D1F4BEA",
"k. c #B14A41A740AF",
"l. c #B1AA4BC643E7",
"z. c #B2204DCD4B2B",
"x. c #A59252624635",
"c. c #AC4E514F45F8",
"v. c #A57553074D68",
"b. c #AC1A53734BFD",
"n. c #A58A58754F34",
"m. c #AA6959BF4E8D",
"M. c #B2D653A14CF2",
"N. c #B6055BA74EF8",
"B. c #A513553E5285",
"V. c #AB36555752B3",
"C. c #A5C05B425407",
"Z. c #AB455AD253E5",
"A. c #A5A05C775A43",
"S. c #ABBC5CA45A1E",
"D. c #B333552D526E",
"F. c #B3285AE8544A",
"G. c #B4C25D2B5AA9",
"H. c #9E34600D562C",
"J. c #9EC661BB5D01",
"K. c #A75A600C56FB",
"L. c #AA796151578B",
"P. c #A59962E35C96",
"I. c #AC3D62925C74",
"U. c #AC7C68835F63",
"Y. c #B0A9619B5793",
"T. c #B34D63D65D0C",
"R. c #A54E65F06334",
"E. c #ACD4655A62EC",
"W. c #A5786AA36593",
"Q. c #ACFB6AA26585",
"!. c #A7A86D696B07",
"~. c #ADAE6DA86AB6",
"^. c #B2586546621C",
"/. c #B99965C16461",
"(. c #B2906AD965A0",
"). c #B93C6A606596",
"_. c #B34C6D7E6A9D",
"`. c #BA8B6D5C6A6E",
"'. c #AEC0700967DE",
"]. c #A70D735A6BE3",
"[. c #AD5972A76D68",
"{. c #B3CA72B46DBC",
"}. c #BA45726E6D48",
"|. c #AD6F74EC723E",
" X c #AE5F79F57504",
".X c #ADDF7AA7785F",
"XX c #B4647585729E",
"oX c #BAD576337344",
"OX c #B4C17A677591",
"+X c #BB1D7AE175A8",
"@X c #B56E7D5B7A1F",
"#X c #BB4F7D9B7A91",
"$X c #C0F57D5279A2",
"%X c #AF3080FB7BCF",
"&X c #B5D882187CF9",
"*X c #BBA582727DCD",
"=X c #C14182EC7E46",
"-X c #B654849781C5",
";X c #BBE6855D8254",
":X c #B70988F084CD",
">X c #BCA38A1285BC",
",X c #B75E8B65894F",
"<X c #BDA78D948A51",
"1X c #BE8B91EA8DD0",
"2X c #BF6A951A91CB",
"3X c #BF70982492AD",
"4X c #C216860E8317",
"5X c #C1C48A4385AB",
"6X c #C2518DE18ADA",
"7X c #C2BB92228E1D",
"8X c #C36A951191B9",
"9X c #C40E99369432",
/* pixels */
"5XZ.T.Y.I.m.6XQ.B.S.A.h.OX-Xh.A.C.A.A.<XS.S.S.S.j.*XOXn.I.Z.C.(.<Xn.K.K.P.n.<XW.a.a.a.r..X-Xh.V.B.B.V.<XS.S.S.S.h.;XoXl.F.D.D.D.",
"4X4.8.8.c.4.=XC.| | s.] ~.@X' q.q.f.e.<Xd.6.d.f.@.OX(.=.f.f.7.L.*X,.7.f.x.,.-Xa.} 0.r.} !.-X| h.h.h.h.<Xs.s.s.h.] *X}.6.l.z.l.z.",
"}.'.9X'.Q.Q.[.R.;X;XT.).`.`.oX8X!.].'.|.W.<XOXE.Q.!.Q.OX6XQ.{.[.{.!.7X~.Q.Q.~.R.-X;XW.!.|.!.|.8X_._._.oX^.8X#X).}.oX`.#X7X(.}.{.",
"+.J &X1./ Q / ; |.}.w *.S X.6.;Xx ( N ^ f OXB.8 E I 5 A.OXO / , Y 7 &X;.E T E + |.!.X R 4 8 } @Xp o.s o.9 $XF.i ..a q D.+X: #.D ",
"+X+X*X+XoX6X<X{.@X#XXX+X9XoX$X*X+X}.7X-XXX-X@X X;X1X[.+X@X|.|.7XOX{.#X+X{.5X6XoX*X+XOX+X8X_.XX#XoX`.6X-XXX#XOX{.*X6X(.oX+XoX}.9X",
"q q 9 9 9 ^.I.O < + O =.;X9 w 0 0 9 +Xf.O @ O O C.OXO h : = = *XH y y - + (.T.9 V r 9 4.4X+ + 9 + + oXh.O + + O v.{.+ , + + + ;X",
"*X#X$X7X;X>X>X&X&X1X7X*X7X+X#X+X7X+X>X*X@XOX<X<X@X<X@X&X&X2X@X<X-X*X*X7X*X=X*X*X&X=X1X+X<X#X#X@X8X#X>X&X@XOX<X>X#X>X#X*X*X8X#X6X",
"9 0 9 oX1.X O O X n.oX9 9 9 9 9 #X+ + + + + ^.I.X O O X I @XO O O O O OX8.+ 9 w 9 M.{.O + + # O *Xg O O : O ~.I.+ + + + H $X0 0 ",
"6X#X#X<X-XOX<X;X+X:X7X*X4X5X#X*X7X#X#X6X=X+X5X6XoX<X>X@X;X7X@X&X6X#XOX6X5X*X7X<X*X<X1X&X,X1X&X&X2X-X-X<X&X@X<X>XOX;X:X@X&X7X#X#X",
"@XX O O O X OX5.O + O O v.{.O + O O O #X0 0 0 0 9 ).U.O : O + ) #X9 9 9 9 + +Xw.. & X . y.].. o . . . -X@ X X X X R.A.. & . X . ",
"8X-X#X#X;XXX7X>XOXXX&X+X*X8X@XXX#X#XXX6X4X$XoX4XoX4X7X*XOX&X*X+X8X#X#XXX4XoX6X>X&XOX&X&X-X1X@XOX.X-XOX8X:X@X@X-X@X,X1X@XOX*X-X@X",
"$.4Xy A #X_ O @XB.X !.Q.X B.OXO ;.;X+ + ;X4.9 +Xj.9 ^.~.X A.OXO T -Xf x ;X*.+ +XN.9 }._.O V.OXO 3.*X0 0 =X] + oXB.O ~.(.9 D.oX9 ",
"$X7X}.}.6XoX_.1X&XQ.,X:X~.&X<X(.XX8X_.#X7X$X$X7X=X`.6X;X'.&X1X'.@X8X[.|.8XoXoX6X*XT.5X;X_.-X<XQ.OX7X).oX7X}.~.7X*X[.<X;X^.#X6X).",
"*X9 ;.&._ o.;X;.] | &.< {.`.# ;.&.X.s.4XG :.*.:...4XK.+.3.4.J I.#Xa 6.;.-.&.<X5.&.3.=.7 {.[.j 1.{ ^ e.;XB ,.,.[ x *XC.I { ] / ,.",
"6XF.^.^.^.T.7X(.E.Q.E.S.;X-XG.^.Q.T._.6XG.T.^.T.F.5X+XU.(.'.U.OX>XZ.^.^.^.S.6X~.U.Q.Q.S.*X-XI.Q.W.U.[.1XL.Q.Q.Q.S.<XOXI.Q.(.Q.Q.",
"z.z./.4Xl.D.M.N.z.6XS.j.j.j.d.XX*Xg.Z.m.m.F.>Xh.v.v.B.f.:X{.x.Z.n.x.(.>Xq.n.h.B.f.>XS.v.v.v.s.OX&Xx.m.n.n.A.>Xj.b.j.j.9.4X`.l.D.",
"z.z./.=Xl.M.M.N.l.6XG.j.h.V.5.XX*Xx.C.Z.C.L.5Xv.V.h.B.9.-X{.h.V.A.x.~.:Xe.C.n.B.f.,XS.h.v.b.f.}.&Xx.C.m.B.L.<Xj.b.j.V.9.=X`.9.z.",
"Q.^.Q.'.I.6X XP.W.!.P. X<XA.Q.Q.Q.U.1XQ.E.E.Q.A.-X#XV.^.^.E._.1XJ.R.R.R.a.,X}.I.^.T.S.XX5XL.^.(.(.T.9XQ.I.E.Q.Z.*X@XA.I.E.S.E.7X",
"5.5.,.{ B &Xa.Q } ' U A.&Xn 1.[ ( ( :Xs.] | ] 6 [._. .;._ o.d.-X` <.} } L -XS.@.5.=.+.E.#XH 6.=.#.$.>Xf.3.1.=.Y XX~.I q.| ] h.>X",
"{.[.OX2XQ.|.|.~.W.,X&X|. X|.].&X1X!..X|.|.].1XoXXX+X}.`.5X>XQ.XX[.~.XX2X~. XXX{.(.1X&X[.OX[.!.&X7X(.&X{.{.{.8XXXOXOXOX~.,X;X_.@X",
"1 O E -X$ 4 $ R O .Xp.o * n & i..X. o & v . &X-.r w X.9 `.Q.O + < 5 E @X- < - Y + +Xy.X X v X y.+XO : g H - *X=.: - +.O _.E.O O ",
"@X@X@X:X@X>X8XOX@X;X-XOX8X+X+X#X;XXX6X5XXX#X4X#X=X9X@X&X:X:X.X2X;XXX@X;XXX>X<XOX@X&X@X X2X+X.X&X*XOX6X6X+X#X>X#X*X7XOX+X#X#XXX8X",
"= O O @ X v._.O + O + O #Xw 9 0 0 9 /.G.9 0 9 9 s @X  . . .   .X9.O O O O h.{.X O O @ O *Xh # O # @ E.Z.O + + + a #X+ 9 # y + *X",
"+X<X&XOX:X<X;XOX6X#X*X6X6X#X7X4X#X6X8X*X4X6XoX#X6X>X@X<X.XOX<X6X#X5X6X#X>X7X>X*X1X@X&X1X1X&X1X*X*X1X7X*X4X>XoX*X6X<X*X8X#X#X7X8X",
"+ {.p.  R.E.O 9.oX9 u #X9 + *X#.O {.l.+ T.E.O 9.OXO k +XO O *Xe + `.F.+ G.T.O 6.XXX + @X. . &X$.9 oXc.+ T.(.O g.XXX x #X0 9 $X9 ",
"OX6X,X.X,X9X@X-X6XoX+X8X6X#X9X5X#X7X8X+X5X<XOX*X9X;X&X1X&X+X8X7X#X8X4XoX4X9X-X;X2X@X-X9X,X@X3X*X&X7X8XOX;X5XOX*X9X;X*X8X#X$X8X6X",
"O O O # O ~.A.. X o X [ #X+ 9 9 9 9 oX3.O @ g O K.'.O = = ; @ &X# + + : O _.S.O + + O &.&Xo f f M X &X,.O # g O B._.+ + + + + ;X",
"XXOXOX@X~.<X:X|. X&X|.&X<X`.oX+X#X`.7X&XOX+X&X{.>X1XOX@X&X@X%X3XOXXX@X@XXX6X-XXXOX@XXXOX2X X+X&X%X|.2X*XOX@X&X}.>X4X`.{.#XXXoX8X",
"] l E.XX# Y b / / ;X+.+.Z +.# oX^.: X.+.H b.*Xi @.F -.i *Xy.W N >.d R.XX+ o.I o.o.4Xo.o.a _ + XXU.> P R P y.*Xq X.a @.9 =Xr.Y U ",
"[.Q.*X5XE.~.XX_._.8XXX_.}.XX(.6X*X(._._.(.oX7X^.(.`.(.T.7X X'.[.[.W.%X;XS.(.(.E.(.7X(.(._.{.^.,X&XR.~.[.Q.OX7X(.}.oX_./.7XXXQ.~.",
"4X%.l.6.l.4.5Xj.s.s.f.&.XX+X:.l.l.k.z.>X7.x.7.x.,.*XU.5.8.g.3.^.;X/ s.;.s.{ ;XM.6.6.l.%.oX|.} w.w.w.u.<X8.g.8.c.4.*X^.;.9.s.d.s.",
"6XM.T.T.^.T.7X^.S.S.A.v.&X$Xz.G.F.F./.6XK.L.K.L.v.>X}.m.I.I.Z.XX<XZ.E.S.S.Z.6X/.G.G.^.F.;X.Xu.J.a.p.J.1XY.T.T.U.Y.5XoXV.S.F.S.S.",
"A.Z.Q.7XY.U.T.T.F.6X}.F.T.T.F.oX:XB.P.A.P.K.1XS.K.A.S.n.-X@XC.R.S.P.!.<Xv.A.S.S.h.<X{.S.U.I.Z.OX;Xh.S.A.A.C.6X^.T.T.T.F.;XOXv.S.",
"f.5.Z.>X4.8.8.c.4.>XT.6.6.g.4.(.+X) q.q.e.1.>XB.f.f.v.| &X{.] q.f.q.B.;X9.s.s.h.| ;XI.-.5.g.=.(.@X] s.s.f.s.<Xg.6.:.d.*.oX_.;.s.",
"(.~.~.{.I.>X&X~.'.'.W.OX<XI.(.(.~.U.8XXX~.[.|.Q.:X;X^.(.`.(.(.6X~._._.XXQ.6X;XQ.{.{.(.#X5XT._.(._.^.8X X!.~.|.Q.-X;XR.W.W.!.].7X",
"! Y #.) + OXA.O ^ / @ B.#X+ E @.o.+ >Xq.= / / O E.}.9 _ o.s *.#X% 6 I I O OXI.+ / +.- j.*X+ @.&.@.- ;X0.4 ^ ^ O W.!.X ' ' v ' >X",
";X8XXX#X8X&X.X2XOX~.<X>XoX<X<X[.;X7X+XOX8XXX{.8X#XXX6X>X{.6X7XOX-X6X_.oX7X#X+X8X#X{.<X-XXX<X<X|.-X6X@X@X8XoXoX8X#XoX7X;X}.6X<X@X",
"f.OXO T @XX . :XE X XXj.+ ^.Q.. y.OXO F #X+ 9 #XE O XXb.O (.~.O b.oX+ _ #X+ + #X_ O OXv.X E.R.. r.XXO 6 4Xt r =X..9 $Xb.+ (.E.X ",
">X5X#X#X<X;X6X>X#X#X5X#X5X6X;XOX*X4X>X6X;X#X#X5X#X7X<X*X#X>X;X>X<X-X@X;X;X@X7X;XOXOX<X@X<X<X;XOX;X;X;X1X>X#X#X>X#X6X5X=X$X5X;X6X",
":.+ 9 + 9  .$X9 0 0 9 9 oX&.9 9 9 + D.XX+ # + + + *X+ + + + O (.S.X O O O E @XO # + O O OX&.O # + O S.XXO @ O O O *Xw 0 0 0 9 oX",
"4X@X@X<XOX@X<X#X@X<X4X+X7X4X+X4X<XoX4X6X#X#X6X*X*X7X+X+X>X;XXX>X>X@X-X<X@X-X8X&X@X<X>X&X7X*X&X*X<XOX;X1XOX;X<X;X=X8X=X#X5X5X+X1X",
"X . R -X. X . o . .X9.+ + 9 + j._.+ + + + + +XZ - # : + '.U.X O O O ! @XX X X O X @Xf.# # g + m.{.O O O O O #X0 0 9 0 9 /.A.. X ",
"-X X@X9X.X@X,X@X.X2X;XXX-X=XXX4X6XoX#X4XoX$X7X*X+X4X:X+X7X<X@X-X*X&X;X2XOX+X;X@XOX1X>XOX*X*XOX>X<XXX@X;XOX@X8X+XoX*X#X{.5X-X|.OX",
";XO T O b - -XR 8 O 8 X ~.`.9 F q S -.4X0 G 0 G 0 oXy.; j j = C.OXO ! = B h :X! c : k + {.~.O j @ ; ) *XO P O P X @Xr.o * & v n ",
"1XE.~.OX|.[.1X|.].|. XE.<X5X(.XXoX_.oX8X`.`.oX$X`.6X@X~.~.|.Q.-X<X'.{.OX[.'.8XOX{.OXOX_.<X,X[.XX@X{.OX8X~.|.OXOXQ.2X&X[. X@X!.OX",
"&.5.T -Xp.>.>.<.W ].XXF =.&.-.:.>X] ] R ;.8 @X^.Y &.=.@.Z.;XF =.@.3.H *Xy.[ ^ } P W.OX .=.=.-.5.<X| | ] q.I @XE.E { ;.] Z.-XT ;.",
"E.E.S.1X].P.W.W.J.%X;XS.^.E.^.E.8XE.~.E.Q.A.,X#XE.(.^.E.XX6XS.(.^.(.I.6X!.W.W.E.A.@X;XS.^.^.^.Q.1XS.R.S.I.B.;XXXS.E.I.S._.<XS.E.",
"v.v.v.v.f.OX Xr.B.B.r.A.<Xt.i.u.u.r.;X`.z.D.D.z.`.;Xh.S.Z.B.V.<XJ.p.p.p.w.&X+Xl.F.D.j.G.6Xc.Z.M.b.g.4XE.s.j.h.s.E.*X8.b.b.b.b.1X",
"v.h.B.V.5.OX X| i.r.e.B.1Xt.i.n.p.0.>X/.d.z.M.d./.=X9.B.V.h.h.<XH.t.p.p.w.%X#X-.j.M.g.F.6Xg.b.M.F.8.4X(.h.V.V.f.^.;Xg.Z.Z.Z.c.7X",
"(.2XP.U.7X(.S.4X XB.&X=XL.*X,XB.!.2XI.I.6XE.B.<X Xp.-X*XF.+X4XF.{.7XT.^.6XW.B.<XXXV.;X&XS.@X6XN.`.7X^.(.7X'.I.7X XB.;X*XD.+X4XS.",
"5.>X,.,.>Xg.p #XP.x OX}.C T.&X2 y.;XE X.-Xe.b &XR.. ].oXt T.#Xe d.4Xo.*.;Xr.3 &XI.- {.{.- I.*Xu M.>X#.+.>X8.D *XA.O |.oXq ^.#X6 ",
"7X&X{.{.+X(.>X<X]. X X|.OX8X}.}.}.oX).6X&X{.[.OX].&X8X_.{.XXXX_.8X@X{.|.OX[.1X,X].|. X X.X8X{.{.}.+X'.1X:X'.'. X[.@X2X_.XXXXOXXX",
"*XK S q H 9 }.R.X 4 o o } ;X0 G w G 0 =Xt.g f x = K.XXO , + , + @Xm j = x O [.W.o M d d <.*X= B ; ! + %Xy.f d N * H.XX+ S # z b ",
">X#X*X8XOXOX-X@X|.<X;XXX@X;XoX=X8X+X#X4X*X&X9X*XOX&X*X{.4X>X{. X-XOXOX1X XXX&X&X|.1X&XOX&X>X+X*X1XOX&X:X&X%X3X@X.X@X&X|.,X6XOX+X",
"+ r D *XO + O O O {.b.+ + + + g.oX9 y 9 9 9 *XH + + + + T.E.X O X O 1 @XO = O O O |.b.+ 9 + + g.OXO h X h @ &XP X X X . P.~.+ V ",
"7XOX-X6XOXOX1X-XOX>X;X+X>X<XXX*X>XOX+X7X&X*X7X;X*X7X6X*X<X<X&X<X8X@X-X2X;X&X2X&X@X1X&X@X,X6X+X*X1X&X&X9X&X&X1X&X@X1X:XOX>X>X+X&X",
"OXO O O O O @Xm O X O X A.E.X O O O O @XO # O # O OXZ.O + O + s.OXO + O + + OXP . . X . a.(.+ 9 + 9 y #XO O O O X XXv.X O O O O ",
"1X@X@X<X-X@X2X;X@X<X>X&X7X<X@X*X<X@X-X8X*X@X>X*XOX7X>XOX;X;XOX;X8XXX+X,X@X@X2X-X.X,X<X.X<X6X&X*X6X#X;X9X@XOX<X#XXX<X>XXX-X>X@X@X",
"X = @ @X5 + O , O Q.T.9 q w t 4.-XO : O 7 O OXs.O + + O B.{.O @ O : # -X2 . . 2 . !.E.X o X = [ @X+ + + 5 + +X9.9 9 + + V.|.X = ",
"@X@X@X8XoXXX*XXX{.<X5X}.*X+XoX+X9XXXOX*XOX|.8X&XXX@XOX_.*X<X{.@X@XOXOX2X.X|.%X|.].,X>X|.&X&X X&X8X{.OXOXXX_.<X-XXX*X#XoX4X<X|.-X",
"F.K $.K K 8.*Xg #.m / - &Xm.z +.K y U.&Xf ,.Q ) ~ &XE b b I O {.].g ) B Q 2.*X, +.I X.+ &Xm.c ~ ! h L..XX ' v R L -X&. .T E + @X",
"+X`.}.}.}.+X9X(.{.'.'.Q.7X+X{.{.'.(.*X1XQ.{.[.Q.[.7X_.XX_.{.(.<X>X'.[.[.[.@X7XE.{.(._.Q.7X&X{.{.[.~.&X1XR.|.].].~.6X_.`.(.(.E.<X",
"/ OX{.3.{.*X+.I.>X#.x.:Xr.>.:XT.J &X}.V `.&Xo.S.4X*.j.6Xq.' ;XS./ #X_.I _.-Xb A.;X6.c.7Xg.*.4XK.! +X'.z ~.-X_ R.5XO.9.6Xg.&.=XB.",
"e.&X%X2.OX*Xd.T.1XC.L.<XP.y.<X{.b.*X*Xc.+X*Xh.^.5Xj.V.6XA.B.>XQ.s.#XXXh.OX-Xf.R.5Xm.I.8XG.j.>X!.v.*XOXx.XX-X0.E.6XD.G.6X^.V.<XR."
};
