/* XPM */
static char *result[] = {
/* columns rows colors chars-per-pixel */
"64 64 87 1 ",
"  c #0E0B05",
". c #130C06",
"X c #190E07",
"o c #160E08",
"O c #190F08",
"+ c #191007",
"@ c #141B07",
"# c #181D07",
"$ c #1C120A",
"% c #161C09",
"& c #191E0A",
"* c #23140B",
"= c #29170D",
"- c #211C0E",
"; c #2C1A0E",
": c #361C0F",
"> c #251F11",
", c #2C1E11",
"< c #311D11",
"1 c #3C1C11",
"2 c #1D220D",
"3 c #22250F",
"4 c #24290E",
"5 c #232612",
"6 c #2A2614",
"7 c #262913",
"8 c #2B2C15",
"9 c #272A18",
"0 c #2D2E19",
"q c #302E16",
"w c #332D19",
"e c #392E1B",
"r c #2F3115",
"t c #2E311A",
"y c #323116",
"u c #34321B",
"i c #3A351D",
"p c #3D391D",
"a c #3C3620",
"s c #3E3921",
"d c #442314",
"f c #43351D",
"g c #423C1F",
"h c #423621",
"j c #433C22",
"k c #493E25",
"l c #42401E",
"z c #464125",
"x c #4B4225",
"c c #4D4329",
"v c #514526",
"b c #52452A",
"n c #58452C",
"m c #55492C",
"M c #5B4C2D",
"N c #5B502E",
"B c #5E4E31",
"V c #5D5031",
"C c #61532F",
"Z c #634E33",
"A c #635333",
"S c #695735",
"D c #665833",
"F c #6B5936",
"G c #6E5B39",
"H c #715937",
"J c #735E3A",
"K c #696039",
"L c #75623C",
"P c #7A633E",
"I c #7F693F",
"U c #7D6541",
"Y c #80673F",
"T c #816641",
"R c #826A43",
"E c #8A6E47",
"W c #8B6E49",
"Q c #8F7046",
"! c #92774A",
"~ c #9C7C4E",
"^ c #9C7A51",
"/ c #A18252",
"( c #AE885A",
") c #B48F5E",
"_ c #C49E63",
"` c #D3AA6C",
"' c #2388C5",
/* pixels */
"''''''''''''''''''''''''''''''''''''''''''''''''''''''''''''''''",
"''''''''''''''''''''''''''''''''''''''''''''''''''''''''''''''''",
"''''''''''''''''''''''''''''''''''''''''''''''''''''''''''''''''",
"''''''''''''''''''''''''''''''''''''''''''''''''''''''''''''''''",
"''''''''''''''''''''''''''''''''''''''''''''''''''''''''''''''''",
"''''''''''''''''''''''''''''''''''''''''''''''''''''''''''''''''",
"''''''''''''''''''''''''''''''''''''''''''''''''''''''''''''''''",
"''''''''''''''''''''''''''''''''''''''''''''''''''''''''''''''''",
"''''''''''''''''''''''''''''''''''''''''''''''''''''''''''''''''",
"''''''''''''''''''''''''''''''''''''''''''''''''''''''''''''''''",
"''''''''''''''''''''''''''''''''''''''''''''''''''''''''''''''''",
"''''''''''''''''''''''''''''''''''''''''''''''''''''''''''''''''",
"''''''''''''''''''''''''''''''''''''''''''''''''''''''''''''''''",
"''''''''''''''''''''''''''''''''''''''''''''''''''''''''''''''''",
"''''''''''''''''''''''''''''X''.;'''''''*'''''''''''''''''''''''",
"''''''''''''''''''''+=''''''.<'X*'''''''.'''''''''''''''''''''''",
"''''''''''''''''''''.*''''''.*'.*'''''''$'''''''''''''''''''''''",
"''''''''''''''''''''.*''''''.;'.*''$'*d'X'''''''''''''''''''''''",
"'''''''''''''''''''' =''''''.='.*''.'.*'.'''''''''''''''''''''''",
"''''''''''''''''''''.*''''''.:'.*'' :.=.O'''''''''''''''''''''''",
"''''''''''''''''''*'$$''''''.*'.=''+*.$.O'''''''''''''''''''''''",
"''''''''''''''''''+'$$''''''.*'.=''.*.$.O'''''''''''''''''''''''",
"''''''''''''''''''.''*''''''o*'.*''.'.*.$'''''';''''''''''''''''",
"''''''''''''''''''+''$'''''',>'.*''.k.*.o'''''X=''''''''''''''''",
"''''''''''''''''''.1'O''''''k'''''' '.*'O'''''.;''''''''''''''''",
"''''''''''''''''''.=o,''''b'z''w'''+/.='''''''.'''''''''''''''''",
"''''''''''''''''''.* =''V'''j'''qa'E'.*'h'''''.'''''''''''''''''",
"'''''''''''''''''Mi8$='''b''a'''qj'A' ;'bj''''.'''''''''''''''''",
"''''''''''''''''''!< ;'''mJ'a'''u'ce'.9'c'b)''.'''''''''''''''''",
"'''''''''''''''''''jo+8J9BU'uw''ssF8'-0j'8T'''.'''''AAA'''''''''",
"'''''''''''''''''''L'*'iG0'Gt'q'umxt_-tgw'I'''o'''c'''''''''''''",
"'''''''''''''''''''W5$'uJm9St''~tVpu!-uju'U'''''oj''''''''''''''",
"'''''''''''59''''''mq$8'jBcpU^AG9z'sT6bp'DM'''''$'''''''''''''''",
"''''''''''''j5'''''iiow'ms'78'Tj8bu0F6ciJm''''qi6ttuu'''''''''''",
"'''''''''''T',7''''0M.s'Vm's8''B8xj0j>pL'x'''qAa*st'''''''''''''",
"'''''''''''''ZU9'''8Jiz'ma'j5'bijixu06qc'x='qLz$$9''EEU'''''''''",
"'''''''''''''-RK5''8YeibjbRq9'iMb8c9aw0''kpqMCje-''L''''''''''''",
"'''''''''''''whBu''6H6i'u2B'7''M77hsiqq'Me<uy9'>J'F'''''''''''''",
"'''''''''''''+'Bca''m6s'a70VwwwCypusjeq5butiq9'XeU''''7'''''''''",
"''''''''''''7h'j^a''g3j'sUqG888Mgc8a'e8wx9t'q6'3Ux''0'''''''''''",
"''''''''''''''A'BNz'u4k'jB5i978Mzi7y'6i5i8t'q6iwF''a''''''''''''",
"'''''''''''''ib'mRtbqqv'bax805umz7iy'0j9ir'uiw6qp'a'''''''''''''",
"'''''''''''''J'9'cMj6pbj'i79i39bgqxyE886s7'5ykMLLx0uj'''''''''''",
"''''''''''''''b'bcC8rxbg's'0i88Ef8g0C38qpq'5jwpizxbS''''''''''''",
"'''''''''''U''mApji0pvvp'j'8aymb*7yqp36p9a8i8eu80'x'''''''''''''",
"'''''''Va'(`ARWzP98xgxkic'k9uyyj$9yr537i5i8i8wyyisT''''AAGG'''''",
"'''''''''R'''Ajsx8A7ujkyz'tiuy9iX7yr37yiweqiw686'x'''m''''''''''",
"''''''''''j'UjA/j7mjjbhqk'y%0a5u$y0828k0ii7gq38gA'''j'''''''''''",
"'''''''''''b'z'xPuiiimm9j''&0y2t$p7r7yy60qyq036C0''juupm''''''''",
"''''''''''98'/xx''r55Kc5jj'98y28$ityyi83u3xw836Mi'i0v'''''''''''",
"''''''''''''j'yuM'020xu3jc'q34274yrpui74j2g7637j''8z''''''''''''",
"''''''''''''9'p0m''tuj85i''0222t7r7p8i0u8u'37767'7p'''''''''''''",
"'''''''''''''gMiv''i7u85i''c223p302p8p9244'25557'y''''''''''''''",
"'''''''''''''9'gm''352t7i'''J20p30&u9i8778'&25777i''''''''''''''",
"'''''''''''''''pv)s'02i0i'''#p7i37#ikM0u&4'&%5r'8'''''''''''''''",
"''''''''''''''i7!'''04iii'''#82u7'@y2y47&''%25y'u'''''''''''''''",
"''''''''''''''''''''''''''''''''''''''''''''''''''''''''''''''''",
"''''''''''''''''''''''''''''''''''''''''''''''''''''''''''''''''",
"''''''''''''''''''''''''''''''''''''''''''''''''''''''''''''''''",
"''''''''''''''''''''''''''''''''''''''''''''''''''''''''''''''''",
"''''''''''''''''''''''''''''''''''''''''''''''''''''''''''''''''",
"''''''''''''''''''''''''''''''''''''''''''''''''''''''''''''''''",
"''''''''''''''''''''''''''''''''''''''''''''''''''''''''''''''''",
"''''''''''''''''''''''''''''''''''''''''''''''''''''''''''''''''"
};
